<svg width="256" height="256" viewBox="0 0 1024 1024" fill="none" xmlns="http://www.w3.org/2000/svg">
<rect width="1024" height="1024" rx="128" fill="#F0F4F8"/>
<path d="M512 96C326.4 96 192 230.4 192 416V832C192 876.8 227.2 912 272 912H400C444.8 912 480 876.8 480 832V416C480 371.2 444.8 336 400 336H272C272 284.8 316.8 240 368 240H656C707.2 240 752 284.8 752 336V752C752 796.8 716.8 832 672 832H544C499.2 832 464 796.8 464 752V416C464 327.2 391.2 256 302.4 256" stroke="#64B5F6" stroke-width="64" stroke-linecap="round" stroke-linejoin="round"/>
<path d="M512 96C697.6 96 832 230.4 832 416V832C832 876.8 796.8 912 752 912H624C579.2 912 544 876.8 544 832V416C544 371.2 579.2 336 624 336H752C752 284.8 707.2 240 656 240H368C316.8 240 272 284.8 272 336V752C272 796.8 307.2 832 352 832H480C524.8 832 560 796.8 560 752V416C560 327.2 632.8 256 721.6 256" stroke="#9575CD" stroke-width="64" stroke-linecap="round" stroke-linejoin="round"/>
</svg>